<svg width="27" height="27" viewBox="0 0 27 27" fill="none" xmlns="http://www.w3.org/2000/svg">
<path d="M13.5 0C15.2902 0 17.0071 0.711158 18.273 1.97703C19.5388 3.2429 20.25 4.95979 20.25 6.75C20.25 8.54021 19.5388 10.2571 18.273 11.523C17.0071 12.7888 15.2902 13.5 13.5 13.5C11.7098 13.5 9.9929 12.7888 8.72703 11.523C7.46116 10.2571 6.75 8.54021 6.75 6.75C6.75 4.95979 7.46116 3.2429 8.72703 1.97703C9.9929 0.711158 11.7098 0 13.5 0ZM13.5 3.375C12.6049 3.375 11.7465 3.73058 11.1135 4.36351C10.4806 4.99645 10.125 5.85489 10.125 6.75C10.125 7.64511 10.4806 8.50355 11.1135 9.13649C11.7465 9.76942 12.6049 10.125 13.5 10.125C14.3951 10.125 15.2535 9.76942 15.8865 9.13649C16.5194 8.50355 16.875 7.64511 16.875 6.75C16.875 5.85489 16.5194 4.99645 15.8865 4.36351C15.2535 3.73058 14.3951 3.375 13.5 3.375ZM13.5 15.1875C18.0056 15.1875 27 17.4319 27 21.9375V27H0V21.9375C0 17.4319 8.99438 15.1875 13.5 15.1875ZM13.5 18.3937C8.48812 18.3937 3.20625 20.8575 3.20625 21.9375V23.7938H23.7938V21.9375C23.7938 20.8575 18.5119 18.3937 13.5 18.3937Z" fill="white"/>
</svg>
