<svg width="24" height="24" viewBox="0 0 24 24" fill="none" xmlns="http://www.w3.org/2000/svg">
<path d="M16.125 9.75L12 3L7.875 9.75H16.125ZM7.875 18C8.8125 18 9.60925 17.672 10.2653 17.016C10.9213 16.36 11.2495 15.563 11.25 14.625C11.2505 13.687 10.9223 12.8903 10.2653 12.2347C9.60825 11.5792 8.8115 11.251 7.875 11.25C6.9385 11.249 6.1415 11.5772 5.484 12.2347C4.8265 12.8923 4.4985 13.689 4.5 14.625C4.5015 15.561 4.8295 16.358 5.484 17.016C6.1385 17.674 6.9355 18.002 7.875 18ZM18.75 17.625V11.625H12.75V17.625H18.75Z" fill="#50D6FF"/>
<circle cx="12" cy="12" r="11" transform="matrix(-1 0 0 1 24 0)" stroke="#50D6FF" stroke-width="2"/>
</svg>
