<svg width="16" height="16" viewBox="0 0 16 16" fill="none" xmlns="http://www.w3.org/2000/svg">
<path d="M6.5 4.43994V5.28494H15.9913C15.978 5.01244 15.9495 4.66794 15.8475 4.43994" fill="#EC1C24"/>
<path d="M15.4 3.59521H6.5V4.44021H15.8475C15.746 4.12496 15.595 3.83746 15.4 3.59521Z" fill="#E6E7E8"/>
<path d="M13.5 2.75H6.5V3.595H15.4C14.9827 3.0725 14.296 2.75 13.5 2.75Z" fill="#EC1C24"/>
<path d="M15.9913 5.28516H6.5V6.13016H16V5.56691C16 5.51666 15.9967 5.46766 15.9952 5.41841C15.9942 5.40491 15.9928 5.37016 15.9913 5.28516Z" fill="#E6E7E8"/>
<path d="M6.5 6.97488H16V6.12988H6.5V6.97488Z" fill="#EC1C24"/>
<path d="M6.5 7.8201H16V6.9751H6.5V7.8201Z" fill="#E6E7E8"/>
<path d="M6.5 7.81982H16V8.66482H6.5V7.81982Z" fill="#EC1C24"/>
<path d="M0 8.66504V9.51004H16V8.66504H6.5H0Z" fill="#E6E7E8"/>
<path d="M0 9.50977H16V10.3548H0V9.50977Z" fill="#EC1C24"/>
<path d="M0.00125 10.8747C0.00125 10.8747 -0.001 11.0795 0.005 11.2H15.995C16.002 11.0765 15.9987 10.8747 15.9987 10.8747L16 10.355H0L0.00125 10.8747Z" fill="#E6E7E8"/>
<path d="M2.50002 13.7501H13.5C14.2983 13.7501 14.9618 13.4601 15.415 12.8901H0.58252C1.05052 13.4726 1.72652 13.7501 2.49877 13.7501" fill="#EC1C24"/>
<path d="M0.583745 12.8899H15.4162C15.6139 12.6387 15.7616 12.3518 15.8512 12.0449H0.151245C0.242717 12.3508 0.389753 12.6373 0.584995 12.8899" fill="#E6E7E8"/>
<path d="M0.150005 12.0452H15.85C15.9318 11.7703 15.9805 11.4866 15.995 11.2002H0.00500488C0.0297549 11.4892 0.0527549 11.7074 0.150005 12.0452Z" fill="#EC1C24"/>
<path d="M6.5 2.75H2.5C0.84325 2.75 0 3.98125 0 5.5V8.665H6.5V2.75Z" fill="#176496"/>
<path d="M0.699516 4.24419L0.835516 4.13969L0.971266 4.24419L0.918516 4.07619L1.05377 3.97344H0.886766L0.835016 3.80469L0.783516 3.97344H0.616766L0.752516 4.07619L0.699516 4.24419ZM1.59802 4.24419L1.73402 4.13969L1.86977 4.24419L1.81727 4.07619L1.95227 3.97344H1.78552L1.73377 3.80469L1.68227 3.97344H1.51502L1.65077 4.07619L1.59802 4.24419ZM2.58927 4.24419L2.72502 4.13969L2.86102 4.24419L2.80827 4.07619L2.94327 3.97344H2.77752L2.72502 3.80469L2.67327 3.97344H2.50752L2.64177 4.07619L2.58927 4.24419ZM3.57327 4.24419L3.70902 4.13969L3.84502 4.24419L3.79252 4.07619L3.92752 3.97344H3.76002L3.70902 3.80469L3.65752 3.97344H3.49052L3.62602 4.07619L3.57327 4.24419ZM4.56077 4.24419L4.69677 4.13969L4.83252 4.24419L4.78002 4.07619L4.91527 3.97344H4.74802L4.69652 3.80469L4.64502 3.97344H4.47827L4.61327 4.07619L4.56077 4.24419ZM1.17777 4.68294L1.31352 4.57869L1.44927 4.68294L1.39702 4.51519L1.53202 4.41244H1.36502L1.31327 4.24394L1.26252 4.41244H1.09502L1.23027 4.51519L1.17777 4.68294ZM2.07652 4.68294L2.21227 4.57869L2.34802 4.68294L2.29552 4.51519L2.43052 4.41244H2.26252L2.21227 4.24394L2.16052 4.41244H1.99377L2.12902 4.51519L2.07652 4.68294ZM3.06777 4.68294L3.20327 4.57869L3.33902 4.68294L3.28652 4.51519L3.42177 4.41244H3.25502L3.20327 4.24394L3.15152 4.41244H2.98452L3.11977 4.51519L3.06777 4.68294ZM4.05127 4.68294L4.18727 4.57869L4.32327 4.68294L4.27002 4.51519L4.40552 4.41244H4.23877L4.18702 4.24394L4.13577 4.41244H3.96877L4.10402 4.51519L4.05127 4.68294ZM5.04002 4.68294L5.17477 4.57869L5.31052 4.68294L5.25752 4.51519L5.39302 4.41244H5.22652L5.17452 4.24394L5.12327 4.41244H4.95627L5.09152 4.51519L5.04002 4.68294ZM5.59677 4.24419L5.73252 4.13969L5.86852 4.24419L5.81577 4.07619L5.95077 3.97344H5.78502L5.73227 3.80469L5.68077 3.97344H5.51252L5.64927 4.07619L5.59677 4.24419ZM0.686266 7.75519L0.822266 7.65194L0.958016 7.75519L0.905516 7.58869L1.04052 7.48569L0.873766 7.48619L0.821766 7.31769L0.770766 7.48619L0.603516 7.48569L0.738766 7.58869L0.686266 7.75519ZM1.58502 7.75519L1.72077 7.65194L1.85677 7.75519L1.80402 7.58869L1.93902 7.48569L1.77252 7.48619L1.72052 7.31769L1.66927 7.48619L1.50252 7.48569L1.63752 7.58869L1.58502 7.75519ZM2.57627 7.75519L2.71202 7.65194L2.84802 7.75519L2.79527 7.58869L2.93027 7.48569L2.76252 7.48619L2.71177 7.31769L2.66027 7.48619L2.49352 7.48569L2.62877 7.58869L2.57627 7.75519ZM3.56027 7.75519L3.69602 7.65194L3.83177 7.75519L3.78002 7.58869L3.91427 7.48569L3.74727 7.48619L3.69577 7.31769L3.64427 7.48619L3.47752 7.48569L3.61252 7.58869L3.56027 7.75519ZM4.54752 7.75519L4.68352 7.65194L4.81952 7.75519L4.76752 7.58869L4.90177 7.48569L4.73502 7.48619L4.68327 7.31769L4.63202 7.48619L4.46502 7.48569L4.60002 7.58869L4.54752 7.75519ZM5.58352 7.75519L5.71927 7.65194L5.85527 7.75519L5.80252 7.58869L5.93777 7.48569L5.77002 7.48619L5.71902 7.31769L5.66752 7.48619L5.50002 7.48569L5.63602 7.58869L5.58352 7.75519ZM0.699516 5.12219L0.835516 5.01769L0.971266 5.12219L0.918516 4.95419L1.05377 4.85144L0.886766 4.85194L0.835016 4.68294L0.783516 4.85194L0.616766 4.85144L0.752516 4.95419L0.699516 5.12219ZM1.59802 5.12219L1.73402 5.01769L1.86977 5.12219L1.81727 4.95419L1.95227 4.85144L1.78552 4.85194L1.73377 4.68294L1.68227 4.85194L1.51502 4.85144L1.65077 4.95419L1.59802 5.12219ZM2.58927 5.12219L2.72502 5.01769L2.86102 5.12219L2.80827 4.95419L2.94327 4.85144L2.77752 4.85194L2.72502 4.68294L2.67327 4.85194L2.50752 4.85144L2.64177 4.95419L2.58927 5.12219ZM3.57327 5.12219L3.70902 5.01769L3.84502 5.12219L3.79252 4.95419L3.92752 4.85144L3.76002 4.85194L3.70902 4.68294L3.65752 4.85194L3.49052 4.85144L3.62602 4.95419L3.57327 5.12219ZM4.56077 5.12219L4.69677 5.01769L4.83252 5.12219L4.78002 4.95419L4.91527 4.85144L4.74802 4.85194L4.69652 4.68294L4.64502 4.85194L4.47827 4.85144L4.61327 4.95419L4.56077 5.12219ZM1.17777 5.56119L1.31352 5.45694L1.44927 5.56119L1.39702 5.39344L1.53202 5.29019H1.36502L1.31327 5.12219L1.26252 5.29019H1.09502L1.23027 5.39344L1.17777 5.56119ZM2.07652 5.56119L2.21227 5.45694L2.34802 5.56119L2.29552 5.39344L2.43052 5.29019H2.26252L2.21227 5.12219L2.16052 5.29019H1.99377L2.12902 5.39344L2.07652 5.56119ZM3.06777 5.56119L3.20327 5.45694L3.33902 5.56119L3.28652 5.39344L3.42177 5.29019H3.25502L3.20327 5.12219L3.15152 5.29019H2.98452L3.11977 5.39344L3.06777 5.56119ZM4.05127 5.56119L4.18727 5.45694L4.32327 5.56119L4.27002 5.39344L4.40552 5.29019H4.23877L4.18702 5.12219L4.13577 5.29019H3.96877L4.10402 5.39344L4.05127 5.56119ZM5.04002 5.56119L5.17477 5.45694L5.31052 5.56119L5.25752 5.39344L5.39302 5.29019H5.22652L5.17452 5.12219L5.12327 5.29019H4.95627L5.09152 5.39344L5.04002 5.56119ZM5.59677 5.12219L5.73252 5.01769L5.86852 5.12219L5.81577 4.95419L5.95077 4.85144L5.78502 4.85194L5.73227 4.68294L5.68077 4.85194L5.51252 4.85144L5.64927 4.95419L5.59677 5.12219ZM0.686266 6.00019L0.822266 5.89594L0.958016 6.00019L0.905266 5.83269L1.04052 5.72969L0.873516 5.73019L0.821766 5.56119L0.770766 5.73019L0.603516 5.72969L0.738766 5.83269L0.686266 6.00019ZM1.58502 6.00019L1.72077 5.89594L1.85677 6.00019L1.80402 5.83269L1.93902 5.72969L1.77252 5.73019L1.72052 5.56119L1.66927 5.73019L1.50252 5.72969L1.63727 5.83269L1.58502 6.00019ZM2.57627 6.00019L2.71202 5.89594L2.84777 6.00019L2.79527 5.83269L2.93027 5.72969L2.76252 5.73019L2.71177 5.56119L2.66027 5.73019L2.49352 5.72969L2.62877 5.83269L2.57627 6.00019ZM3.56027 6.00019L3.69577 5.89594L3.83177 6.00019L3.78002 5.83269L3.91427 5.72969L3.74727 5.73019L3.69577 5.56119L3.64427 5.73019L3.47752 5.72969L3.61252 5.83269L3.56027 6.00019ZM4.54752 6.00019L4.68352 5.89594L4.81927 6.00019L4.76752 5.83269L4.90177 5.72969L4.73477 5.73019L4.68327 5.56119L4.63202 5.73019L4.46502 5.72969L4.60002 5.83269L4.54752 6.00019ZM1.16452 6.43919L1.30027 6.33519L1.43602 6.43919L1.38377 6.27269L1.51852 6.16919H1.35152L1.30002 6.00019L1.24877 6.16919H1.08177L1.21702 6.27269L1.16452 6.43919ZM2.06327 6.43919L2.19902 6.33519L2.33477 6.43919L2.28227 6.27269L2.41727 6.16919H2.25002L2.19877 6.00019L2.14727 6.16919H1.98027L2.11577 6.27269L2.06327 6.43919ZM3.05477 6.43919L3.19002 6.33519L3.32602 6.43919L3.27252 6.27269L3.40852 6.16919H3.24177L3.19002 6.00019L3.13852 6.16919H2.97152L3.10677 6.27269L3.05477 6.43919ZM4.03752 6.43919L4.17402 6.33519L4.31002 6.43919L4.25752 6.27269L4.39227 6.16919H4.22552L4.17377 6.00019L4.12252 6.16919H3.95552L4.09077 6.27269L4.03752 6.43919ZM5.02502 6.43919L5.16152 6.33519L5.29752 6.43919L5.24477 6.27269L5.38027 6.16919H5.21352L5.16152 6.00019L5.11002 6.16919H4.94302L5.07827 6.27269L5.02502 6.43919ZM5.58352 6.00019L5.71927 5.89594L5.85502 6.00019L5.80252 5.83269L5.93777 5.72969L5.77002 5.73019L5.71902 5.56119L5.66752 5.73019L5.50002 5.72969L5.63602 5.83269L5.58352 6.00019ZM0.686266 6.87844L0.822266 6.77519L0.958016 6.87844L0.905266 6.71069L1.04052 6.60769L0.873516 6.60819L0.821766 6.43919L0.770766 6.60819L0.603516 6.60769L0.738766 6.71069L0.686266 6.87844ZM1.58502 6.87844L1.72077 6.77519L1.85677 6.87844L1.80402 6.71069L1.93902 6.60769L1.77252 6.60819L1.72052 6.43919L1.66927 6.60819L1.50252 6.60769L1.63727 6.71069L1.58502 6.87844ZM2.57627 6.87844L2.71202 6.77519L2.84777 6.87844L2.79527 6.71069L2.93027 6.60769L2.76252 6.60819L2.71177 6.43919L2.66027 6.60819L2.49352 6.60769L2.62877 6.71069L2.57627 6.87844ZM3.56027 6.87844L3.69577 6.77519L3.83177 6.87844L3.78002 6.71069L3.91427 6.60769L3.74727 6.60819L3.69577 6.43919L3.64427 6.60819L3.47752 6.60769L3.61252 6.71069L3.56027 6.87844ZM4.54752 6.87844L4.68352 6.77519L4.81927 6.87844L4.76752 6.71069L4.90177 6.60769L4.73477 6.60819L4.68327 6.43919L4.63202 6.60819L4.46502 6.60769L4.60002 6.71069L4.54752 6.87844ZM1.16452 7.31769L1.30027 7.21319L1.43602 7.31769L1.38377 7.14969L1.51852 7.04769H1.35152L1.30002 6.87844L1.24877 7.04769H1.08177L1.21702 7.14969L1.16452 7.31769ZM2.06327 7.31769L2.19902 7.21319L2.33477 7.31769L2.28227 7.14969L2.41727 7.04769H2.25002L2.19877 6.87844L2.14727 7.04769H1.98027L2.11577 7.14969L2.06327 7.31769ZM3.05477 7.31769L3.19002 7.21319L3.32602 7.31769L3.27252 7.14969L3.40852 7.04769H3.24177L3.19002 6.87844L3.13852 7.04769H2.97152L3.10677 7.14969L3.05477 7.31769ZM4.03752 7.31769L4.17402 7.21319L4.31002 7.31769L4.25752 7.14969L4.39227 7.04769H4.22552L4.17377 6.87844L4.12252 7.04769H3.95552L4.09077 7.14969L4.03752 7.31769ZM5.02502 7.31769L5.16152 7.21319L5.29752 7.31769L5.24477 7.14969L5.38027 7.04769H5.21352L5.16152 6.87844L5.11002 7.04769H4.94302L5.07827 7.14969L5.02502 7.31769ZM5.58352 6.87844L5.71927 6.77519L5.85502 6.87844L5.80252 6.71069L5.93777 6.60769L5.77002 6.60819L5.71902 6.43919L5.66752 6.60819L5.50002 6.60769L5.63602 6.71069L5.58352 6.87844Z" fill="white"/>
</svg>
