<svg width="26" height="18" viewBox="0 0 26 18" fill="none" xmlns="http://www.w3.org/2000/svg">
<path d="M10.5625 2.74609V4.11922H25.9859C25.9643 3.67641 25.9179 3.11659 25.7522 2.74609" fill="#EC1C24"/>
<path d="M25.025 1.37354H10.5625V2.74666H25.7522C25.5872 2.23438 25.3419 1.76719 25.025 1.37354Z" fill="#E6E7E8"/>
<path d="M21.9375 0H10.5625V1.37312H25.025C24.3469 0.524063 23.231 0 21.9375 0Z" fill="#EC1C24"/>
<path d="M25.9859 4.11963H10.5625V5.49275H26V4.57747C26 4.49582 25.9946 4.41619 25.9922 4.33616C25.9906 4.31422 25.9883 4.25775 25.9859 4.11963Z" fill="#E6E7E8"/>
<path d="M10.5625 6.86531H26V5.49219H10.5625V6.86531Z" fill="#EC1C24"/>
<path d="M10.5625 8.23885H26V6.86572H10.5625V8.23885Z" fill="#E6E7E8"/>
<path d="M10.5625 8.23828H26V9.61141H10.5625V8.23828Z" fill="#EC1C24"/>
<path d="M0 9.61182V10.9849H26V9.61182H10.5625H0Z" fill="#E6E7E8"/>
<path d="M0 10.9849H26V12.358H0V10.9849Z" fill="#EC1C24"/>
<path d="M0.00203125 13.2024C0.00203125 13.2024 -0.001625 13.5352 0.008125 13.731H25.9919C26.0032 13.5303 25.9979 13.2024 25.9979 13.2024L26 12.3579H0L0.00203125 13.2024Z" fill="#E6E7E8"/>
<path d="M4.06259 17.875H21.9376C23.2348 17.875 24.313 17.4038 25.0494 16.4775H0.946655C1.70716 17.4241 2.80566 17.875 4.06056 17.875" fill="#EC1C24"/>
<path d="M0.94854 16.4771H25.0513C25.3725 16.0689 25.6126 15.6027 25.7582 15.104H0.245728C0.39437 15.6011 0.633303 16.0667 0.950571 16.4771" fill="#E6E7E8"/>
<path d="M0.243804 15.1046H25.7563C25.8892 14.6579 25.9684 14.1968 25.9919 13.7314H0.00817871C0.0483975 14.2011 0.0857725 14.5556 0.243804 15.1046Z" fill="#EC1C24"/>
<path d="M10.5625 0H4.0625C1.37028 0 0 2.00078 0 4.46875V9.61187H10.5625V0Z" fill="#176496"/>
<path d="M1.13671 2.42806L1.35771 2.25824L1.57831 2.42806L1.49259 2.15505L1.71238 1.98809H1.44099L1.3569 1.71387L1.27321 1.98809H1.00224L1.22284 2.15505L1.13671 2.42806ZM2.59678 2.42806L2.81778 2.25824L3.03838 2.42806L2.95306 2.15505L3.17244 1.98809H2.90147L2.81738 1.71387L2.73369 1.98809H2.46191L2.6825 2.15505L2.59678 2.42806ZM4.20756 2.42806L4.42816 2.25824L4.64916 2.42806L4.56344 2.15505L4.78281 1.98809H4.51347L4.42816 1.71387L4.34406 1.98809H4.07472L4.29288 2.15505L4.20756 2.42806ZM5.80656 2.42806L6.02716 2.25824L6.24816 2.42806L6.16284 2.15505L6.38222 1.98809H6.11003L6.02716 1.71387L5.94347 1.98809H5.67209L5.89228 2.15505L5.80656 2.42806ZM7.41125 2.42806L7.63225 2.25824L7.85284 2.42806L7.76753 2.15505L7.98731 1.98809H7.71553L7.63184 1.71387L7.54816 1.98809H7.27719L7.49656 2.15505L7.41125 2.42806ZM1.91388 3.14102L2.13447 2.97162L2.35506 3.14102L2.27016 2.86843L2.48953 2.70146H2.21816L2.13406 2.42765L2.05159 2.70146H1.77941L1.99919 2.86843L1.91388 3.14102ZM3.37434 3.14102L3.59494 2.97162L3.81553 3.14102L3.73022 2.86843L3.94959 2.70146H3.67659L3.59494 2.42765L3.51084 2.70146H3.23988L3.45966 2.86843L3.37434 3.14102ZM4.98513 3.14102L5.20531 2.97162L5.42591 3.14102L5.34059 2.86843L5.56038 2.70146H5.28941L5.20531 2.42765L5.12122 2.70146H4.84984L5.06963 2.86843L4.98513 3.14102ZM6.58331 3.14102L6.80431 2.97162L7.02531 3.14102L6.93878 2.86843L7.15897 2.70146H6.888L6.80391 2.42765L6.72063 2.70146H6.44925L6.66903 2.86843L6.58331 3.14102ZM8.19003 3.14102L8.409 2.97162L8.6296 3.14102L8.54347 2.86843L8.76366 2.70146H8.49309L8.40859 2.42765L8.32531 2.70146H8.05394L8.27372 2.86843L8.19003 3.14102ZM9.09475 2.42806L9.31535 2.25824L9.53634 2.42806L9.45063 2.15505L9.67 1.98809H9.40066L9.31494 1.71387L9.23125 1.98809H8.95784L9.18006 2.15505L9.09475 2.42806ZM1.11518 8.13343L1.33618 7.96565L1.55678 8.13343L1.47146 7.86287L1.69084 7.69549L1.41987 7.69631L1.33537 7.42249L1.25249 7.69631L0.980713 7.69549L1.20049 7.86287L1.11518 8.13343ZM2.57566 8.13343L2.79625 7.96565L3.01725 8.13343L2.93153 7.86287L3.15091 7.69549L2.88034 7.69631L2.79584 7.42249L2.71256 7.69631L2.44159 7.69549L2.66097 7.86287L2.57566 8.13343ZM4.18644 8.13343L4.40703 7.96565L4.62803 8.13343L4.54231 7.86287L4.76169 7.69549L4.48909 7.69631L4.40663 7.42249L4.32294 7.69631L4.05197 7.69549L4.27175 7.86287L4.18644 8.13343ZM5.78544 8.13343L6.00603 7.96565L6.22663 8.13343L6.14253 7.86287L6.36069 7.69549L6.08931 7.69631L6.00563 7.42249L5.92194 7.69631L5.65097 7.69549L5.87034 7.86287L5.78544 8.13343ZM7.38972 8.13343L7.61072 7.96565L7.83172 8.13343L7.74722 7.86287L7.96538 7.69549L7.69441 7.69631L7.61031 7.42249L7.52703 7.69631L7.25566 7.69549L7.47503 7.86287L7.38972 8.13343ZM9.07322 8.13343L9.29381 7.96565L9.51481 8.13343L9.42909 7.86287L9.64888 7.69549L9.37628 7.69631L9.29341 7.42249L9.20972 7.69631L8.93753 7.69549L9.15853 7.86287L9.07322 8.13343ZM1.13671 3.85481L1.35771 3.68499L1.57831 3.85481L1.49259 3.5818L1.71238 3.41484L1.44099 3.41565L1.3569 3.14102L1.27321 3.41565L1.00224 3.41484L1.22284 3.5818L1.13671 3.85481ZM2.59678 3.85481L2.81778 3.68499L3.03838 3.85481L2.95306 3.5818L3.17244 3.41484L2.90147 3.41565L2.81738 3.14102L2.73369 3.41565L2.46191 3.41484L2.6825 3.5818L2.59678 3.85481ZM4.20756 3.85481L4.42816 3.68499L4.64916 3.85481L4.56344 3.5818L4.78281 3.41484L4.51347 3.41565L4.42816 3.14102L4.34406 3.41565L4.07472 3.41484L4.29288 3.5818L4.20756 3.85481ZM5.80656 3.85481L6.02716 3.68499L6.24816 3.85481L6.16284 3.5818L6.38222 3.41484L6.11003 3.41565L6.02716 3.14102L5.94347 3.41565L5.67209 3.41484L5.89228 3.5818L5.80656 3.85481ZM7.41125 3.85481L7.63225 3.68499L7.85284 3.85481L7.76753 3.5818L7.98731 3.41484L7.71553 3.41565L7.63184 3.14102L7.54816 3.41565L7.27719 3.41484L7.49656 3.5818L7.41125 3.85481ZM1.91388 4.56818L2.13447 4.39877L2.35506 4.56818L2.27016 4.29559L2.48953 4.12781H2.21816L2.13406 3.85481L2.05159 4.12781H1.77941L1.99919 4.29559L1.91388 4.56818ZM3.37434 4.56818L3.59494 4.39877L3.81553 4.56818L3.73022 4.29559L3.94959 4.12781H3.67659L3.59494 3.85481L3.51084 4.12781H3.23988L3.45966 4.29559L3.37434 4.56818ZM4.98513 4.56818L5.20531 4.39877L5.42591 4.56818L5.34059 4.29559L5.56038 4.12781H5.28941L5.20531 3.85481L5.12122 4.12781H4.84984L5.06963 4.29559L4.98513 4.56818ZM6.58331 4.56818L6.80431 4.39877L7.02531 4.56818L6.93878 4.29559L7.15897 4.12781H6.888L6.80391 3.85481L6.72063 4.12781H6.44925L6.66903 4.29559L6.58331 4.56818ZM8.19003 4.56818L8.409 4.39877L8.6296 4.56818L8.54347 4.29559L8.76366 4.12781H8.49309L8.40859 3.85481L8.32531 4.12781H8.05394L8.27372 4.29559L8.19003 4.56818ZM9.09475 3.85481L9.31535 3.68499L9.53634 3.85481L9.45063 3.5818L9.67 3.41484L9.40066 3.41565L9.31494 3.14102L9.23125 3.41565L8.95784 3.41484L9.18006 3.5818L9.09475 3.85481ZM1.11518 5.28155L1.33618 5.11215L1.55678 5.28155L1.47106 5.00937L1.69084 4.84199L1.41946 4.8428L1.33537 4.56818L1.25249 4.8428L0.980713 4.84199L1.20049 5.00937L1.11518 5.28155ZM2.57566 5.28155L2.79625 5.11215L3.01725 5.28155L2.93153 5.00937L3.15091 4.84199L2.88034 4.8428L2.79584 4.56818L2.71256 4.8428L2.44159 4.84199L2.66056 5.00937L2.57566 5.28155ZM4.18644 5.28155L4.40703 5.11215L4.62763 5.28155L4.54231 5.00937L4.76169 4.84199L4.48909 4.8428L4.40663 4.56818L4.32294 4.8428L4.05197 4.84199L4.27175 5.00937L4.18644 5.28155ZM5.78544 5.28155L6.00563 5.11215L6.22663 5.28155L6.14253 5.00937L6.36069 4.84199L6.08931 4.8428L6.00563 4.56818L5.92194 4.8428L5.65097 4.84199L5.87034 5.00937L5.78544 5.28155ZM7.38972 5.28155L7.61072 5.11215L7.83131 5.28155L7.74722 5.00937L7.96538 4.84199L7.694 4.8428L7.61031 4.56818L7.52703 4.8428L7.25566 4.84199L7.47503 5.00937L7.38972 5.28155ZM1.89234 5.99493L2.11294 5.82593L2.33353 5.99493L2.24863 5.72437L2.46759 5.55618H2.19622L2.11253 5.28155L2.02925 5.55618H1.75788L1.97766 5.72437L1.89234 5.99493ZM3.35281 5.99493L3.57341 5.82593L3.794 5.99493L3.70869 5.72437L3.92806 5.55618H3.65628L3.573 5.28155L3.48931 5.55618H3.21794L3.43813 5.72437L3.35281 5.99493ZM4.964 5.99493L5.18378 5.82593L5.40478 5.99493L5.31784 5.72437L5.53884 5.55618H5.26788L5.18378 5.28155L5.10009 5.55618H4.82872L5.0485 5.72437L4.964 5.99493ZM6.56097 5.99493L6.78278 5.82593L7.00378 5.99493L6.91847 5.72437L7.13744 5.55618H6.86647L6.78238 5.28155L6.69909 5.55618H6.42772L6.6475 5.72437L6.56097 5.99493ZM8.16566 5.99493L8.38747 5.82593L8.60847 5.99493L8.52275 5.72437L8.74294 5.55618H8.47197L8.38747 5.28155L8.30378 5.55618H8.03241L8.25219 5.72437L8.16566 5.99493ZM9.07322 5.28155L9.29381 5.11215L9.51441 5.28155L9.42909 5.00937L9.64888 4.84199L9.37628 4.8428L9.29341 4.56818L9.20972 4.8428L8.93753 4.84199L9.15853 5.00937L9.07322 5.28155ZM1.11518 6.70871L1.33618 6.54093L1.55678 6.70871L1.47106 6.43612L1.69084 6.26874L1.41946 6.26956L1.33537 5.99493L1.25249 6.26956L0.980713 6.26874L1.20049 6.43612L1.11518 6.70871ZM2.57566 6.70871L2.79625 6.54093L3.01725 6.70871L2.93153 6.43612L3.15091 6.26874L2.88034 6.26956L2.79584 5.99493L2.71256 6.26956L2.44159 6.26874L2.66056 6.43612L2.57566 6.70871ZM4.18644 6.70871L4.40703 6.54093L4.62763 6.70871L4.54231 6.43612L4.76169 6.26874L4.48909 6.26956L4.40663 5.99493L4.32294 6.26956L4.05197 6.26874L4.27175 6.43612L4.18644 6.70871ZM5.78544 6.70871L6.00563 6.54093L6.22663 6.70871L6.14253 6.43612L6.36069 6.26874L6.08931 6.26956L6.00563 5.99493L5.92194 6.26956L5.65097 6.26874L5.87034 6.43612L5.78544 6.70871ZM7.38972 6.70871L7.61072 6.54093L7.83131 6.70871L7.74722 6.43612L7.96538 6.26874L7.694 6.26956L7.61031 5.99493L7.52703 6.26956L7.25566 6.26874L7.47503 6.43612L7.38972 6.70871ZM1.89234 7.42249L2.11294 7.25268L2.33353 7.42249L2.24863 7.14949L2.46759 6.98374H2.19622L2.11253 6.70871L2.02925 6.98374H1.75788L1.97766 7.14949L1.89234 7.42249ZM3.35281 7.42249L3.57341 7.25268L3.794 7.42249L3.70869 7.14949L3.92806 6.98374H3.65628L3.573 6.70871L3.48931 6.98374H3.21794L3.43813 7.14949L3.35281 7.42249ZM4.964 7.42249L5.18378 7.25268L5.40478 7.42249L5.31784 7.14949L5.53884 6.98374H5.26788L5.18378 6.70871L5.10009 6.98374H4.82872L5.0485 7.14949L4.964 7.42249ZM6.56097 7.42249L6.78278 7.25268L7.00378 7.42249L6.91847 7.14949L7.13744 6.98374H6.86647L6.78238 6.70871L6.69909 6.98374H6.42772L6.6475 7.14949L6.56097 7.42249ZM8.16566 7.42249L8.38747 7.25268L8.60847 7.42249L8.52275 7.14949L8.74294 6.98374H8.47197L8.38747 6.70871L8.30378 6.98374H8.03241L8.25219 7.14949L8.16566 7.42249ZM9.07322 6.70871L9.29381 6.54093L9.51441 6.70871L9.42909 6.43612L9.64888 6.26874L9.37628 6.26956L9.29341 5.99493L9.20972 6.26956L8.93753 6.26874L9.15853 6.43612L9.07322 6.70871Z" fill="white"/>
</svg>
