<svg width="26" height="19" viewBox="0 0 26 19" fill="none" xmlns="http://www.w3.org/2000/svg">
<path d="M25.7464 15.7339C25.7464 16.4926 25.445 17.2202 24.9085 17.7567C24.372 18.2932 23.6444 18.5946 22.8857 18.5946H17.1643V0H22.8857C23.6444 0 24.372 0.301395 24.9085 0.837881C25.445 1.37437 25.7464 2.102 25.7464 2.86071V15.7339Z" fill="#ED2939"/>
<path d="M2.8607 0C2.10199 0 1.37436 0.301395 0.83788 0.837881C0.301394 1.37437 0 2.102 0 2.86071L0 15.7339C0 16.4926 0.301394 17.2202 0.83788 17.7567C1.37436 18.2932 2.10199 18.5946 2.8607 18.5946H8.5821V0H2.8607Z" fill="#002495"/>
<path d="M8.58215 0H17.1643V18.5946H8.58215V0Z" fill="#EEEEEE"/>
</svg>
