<svg width="25" height="27" viewBox="0 0 25 27" fill="none" xmlns="http://www.w3.org/2000/svg">
<path fill-rule="evenodd" clip-rule="evenodd" d="M2.71052 9.78948C2.71052 7.19315 3.74191 4.70316 5.5778 2.86727C7.41369 1.03139 9.90369 0 12.5 0C15.0964 0 17.5864 1.03139 19.4222 2.86727C21.2581 4.70316 22.2895 7.19315 22.2895 9.78948V15.0534L24.8376 20.1496C24.9549 20.3841 25.0103 20.6448 24.9985 20.9067C24.9867 21.1687 24.9081 21.4233 24.7703 21.6464C24.6324 21.8695 24.4398 22.0536 24.2107 22.1813C23.9816 22.309 23.7237 22.376 23.4615 22.376H17.9178C17.6067 23.5762 16.9059 24.6392 15.9253 25.398C14.9447 26.1568 13.7399 26.5686 12.5 26.5686C11.2601 26.5686 10.0553 26.1568 9.07473 25.398C8.09415 24.6392 7.39331 23.5762 7.08223 22.376H1.53858C1.27633 22.376 1.01842 22.309 0.789355 22.1813C0.560288 22.0536 0.367667 21.8695 0.229785 21.6464C0.0919026 21.4233 0.0133385 21.1687 0.00155414 20.9067C-0.0102302 20.6448 0.0451565 20.3841 0.162454 20.1496L2.71052 15.0534V9.78948ZM10.0778 22.376C10.3233 22.8011 10.6764 23.1542 11.1016 23.3996C11.5268 23.6451 12.0091 23.7743 12.5 23.7743C12.991 23.7743 13.4733 23.6451 13.8985 23.3996C14.3236 23.1542 14.6767 22.8011 14.9222 22.376H10.0778ZM12.5 2.797C10.6455 2.797 8.86693 3.5337 7.55558 4.84505C6.24423 6.15639 5.50752 7.93496 5.50752 9.78948V15.0534C5.50749 15.4874 5.40647 15.9155 5.21244 16.3037L3.57619 19.579H21.4253L19.789 16.3037C19.5945 15.9156 19.493 15.4875 19.4925 15.0534V9.78948C19.4925 7.93496 18.7558 6.15639 17.4445 4.84505C16.1331 3.5337 14.3546 2.797 12.5 2.797Z" fill="#F9FAFB"/>
</svg>
